<?xml version="1.0" encoding="UTF-8" standalone="no"?>
<!-- Created with Inkscape (http://www.inkscape.org/) -->

<svg
   width="160mm"
   height="160mm"
   viewBox="0 0 160 160"
   version="1.1"
   id="svg1"
   xmlns="http://www.w3.org/2000/svg"
   xmlns:svg="http://www.w3.org/2000/svg">
  <defs
     id="defs1" />
  <g
     id="layer1"
     transform="translate(-16.979588,-22.935345)">
    <rect
       style="fill:#000000;fill-opacity:1;stroke:none;stroke-width:0.339025;stroke-dasharray:none;stroke-opacity:1"
       id="rect2"
       width="160"
       height="160"
       x="16.979588"
       y="22.935345"
       ry="13.708644" />
    <path
       style="fill:#ff0909;fill-opacity:1;stroke:none;stroke-width:0.365001;stroke-dasharray:none;stroke-opacity:1"
       d="m 171.82775,43.170602 c 0,0 -8.89755,1.784378 -14.04282,1.587499 -8.27175,-0.316512 -25.06488,-9.957789 -40.25611,-8.914279 -48.754185,3.34903 -68.360105,31.62534 -67.418875,68.807618 0.98872,39.05863 27.7344,61.51055 66.788045,63.39863 16.03485,0.97426 23.74975,-5.68719 39.77682,-6.78197 3.42471,-0.23392 14.00547,2.75891 14.68484,-0.60588 2.02327,-10.02087 1.00285,-19.26078 1.87238,-26.68136 0.82227,-7.01726 -7.97027,3.38132 -17.78757,13.10664 -9.46391,9.37524 -34.92376,10.87529 -44.93704,7.95759 -25.413645,-7.40513 -40.165555,-27.91964 -39.787915,-52.89463 0.37763,-24.974986 14.48439,-55.95445 48.213605,-55.235104 11.49734,0.245204 26.38059,4.453731 38.19091,13.068401 7.81846,5.702936 13.6963,20.427659 15.63992,13.14487 1.61523,-6.052308 1.198,-19.713904 -0.93619,-29.958025 z"
       id="path1-7-4-5-0-6-4-4" />
    <path
       style="fill:#ffa30e;fill-opacity:1;stroke:none;stroke-width:0.365001;stroke-dasharray:none;stroke-opacity:1"
       d="m 166.84064,43.170595 c 0,0 -8.89755,1.784378 -14.04282,1.587499 -8.27175,-0.316512 -25.06488,-9.957789 -40.25611,-8.914279 -48.754215,3.34903 -68.360135,31.62534 -67.418905,68.807615 0.98872,39.05864 27.7344,61.51056 66.788075,63.39864 16.03485,0.97426 23.74975,-5.68719 39.77682,-6.78197 3.42471,-0.23392 14.00547,2.75891 14.68484,-0.60588 2.02327,-10.02087 1.00285,-19.26079 1.87238,-26.68137 0.82227,-7.01726 -7.97027,3.38132 -17.78757,13.10665 -9.46391,9.37524 -34.92376,10.87529 -44.93704,7.95759 -25.413675,-7.40513 -40.165585,-27.91965 -39.787945,-52.89464 0.37763,-24.974983 14.48439,-55.954447 48.213635,-55.235101 11.49734,0.245204 26.38059,4.453731 38.19091,13.068401 7.81846,5.702936 13.6963,20.427659 15.63992,13.14487 1.61523,-6.052308 1.198,-19.713904 -0.93619,-29.958025 z"
       id="path1-7-4-5-0-6-4" />
    <path
       style="fill:#ffea0e;fill-opacity:1;stroke:none;stroke-width:0.365001;stroke-dasharray:none;stroke-opacity:1"
       d="m 161.8535,43.170599 c 0,0 -8.89755,1.784378 -14.04282,1.587499 -8.27175,-0.316512 -25.06488,-9.957789 -40.25611,-8.914279 -48.754237,3.34903 -68.360157,31.62534 -67.418927,68.807611 0.98872,39.05864 27.7344,61.51056 66.788097,63.39864 16.03485,0.97426 23.74975,-5.68719 39.77682,-6.78197 3.42471,-0.23392 14.00547,2.75891 14.68484,-0.60588 2.02327,-10.02087 1.00285,-19.26079 1.87238,-26.68137 0.82227,-7.01726 -7.97027,3.38132 -17.78757,13.10665 -9.46391,9.37524 -34.92376,10.87529 -44.93703,7.95759 -25.413707,-7.40513 -40.165617,-27.91965 -39.787977,-52.89464 0.37763,-24.974979 14.48439,-55.954443 48.213657,-55.235097 11.49734,0.245204 26.38059,4.453731 38.19091,13.068401 7.81846,5.702936 13.6963,20.427659 15.63992,13.14487 1.61523,-6.052308 1.198,-19.713904 -0.93619,-29.958025 z"
       id="path1-7-4-5-0-6" />
    <path
       style="fill:#16f252;fill-opacity:1;stroke:none;stroke-width:0.365001;stroke-dasharray:none;stroke-opacity:1"
       d="m 156.86633,43.170604 c 0,0 -8.89755,1.784378 -14.04282,1.587499 -8.27175,-0.316512 -25.06488,-9.957791 -40.25609,-8.914274 -48.754271,3.34903 -68.360189,31.625335 -67.418963,68.807611 0.988725,39.05863 27.734401,61.51055 66.788133,63.39863 16.03483,0.97426 23.74973,-5.68719 39.7768,-6.78197 3.42471,-0.23392 14.00547,2.75891 14.68484,-0.60588 2.02327,-10.02087 1.00285,-19.26078 1.87238,-26.68136 0.82227,-7.01726 -7.97027,3.38132 -17.78757,13.10664 -9.46391,9.37524 -34.92375,10.87529 -44.937022,7.95759 C 70.132295,147.63996 55.380379,127.12545 55.758016,102.15046 56.135653,77.175476 70.242414,46.196012 103.9717,46.915358 c 11.49733,0.245204 26.38058,4.453731 38.1909,13.068401 7.81846,5.702936 13.6963,20.427664 15.63992,13.14487 1.61523,-6.052308 1.198,-19.713904 -0.93619,-29.958025 z"
       id="path1-7" />
    <path
       style="fill:#0147ff;fill-opacity:1;stroke:none;stroke-width:0.365001;stroke-dasharray:none;stroke-opacity:1"
       d="m 151.87915,43.170597 c 0,0 -8.89755,1.784378 -14.04282,1.587499 -8.27175,-0.316512 -25.06488,-9.957791 -40.256113,-8.914274 -48.754267,3.34903 -68.360185,31.625335 -67.418959,68.807608 0.988725,39.05864 27.734401,61.51056 66.788129,63.39864 16.034853,0.97426 23.749753,-5.68719 39.776823,-6.78197 3.42471,-0.23392 14.00547,2.75891 14.68484,-0.60588 2.02327,-10.02087 1.00285,-19.26079 1.87238,-26.68137 0.82227,-7.01726 -7.97027,3.38132 -17.78757,13.10665 -9.46391,9.37524 -34.92376,10.87529 -44.937043,7.95759 -25.413721,-7.40513 -40.165637,-27.91965 -39.788,-52.89464 0.377637,-24.974981 14.484398,-55.954445 48.213691,-55.235099 11.497342,0.245204 26.380592,4.453731 38.190912,13.068401 7.81846,5.702936 13.6963,20.427661 15.63992,13.14487 1.61523,-6.052308 1.198,-19.713904 -0.93619,-29.958025 z"
       id="path1-7-4-5-0" />
    <path
       style="fill:#73009b;fill-opacity:1;stroke:none;stroke-width:0.365001;stroke-dasharray:none;stroke-opacity:1"
       d="m 146.89195,43.170596 c 0,0 -8.89755,1.784378 -14.04282,1.587499 -8.27175,-0.316512 -25.06488,-9.957791 -40.256138,-8.914274 -48.754271,3.34903 -68.360188,31.625335 -67.418963,68.807609 0.988725,39.05864 27.734401,61.51056 66.788133,63.39864 16.034878,0.97426 23.749778,-5.68719 39.776848,-6.78197 3.42471,-0.23392 14.00547,2.75891 14.68484,-0.60588 2.02327,-10.02087 1.00285,-19.26079 1.87238,-26.68137 0.82227,-7.01726 -7.97027,3.38132 -17.78757,13.10665 -9.46391,9.37524 -34.923788,10.87529 -44.93707,7.95759 -25.413723,-7.40513 -40.165639,-27.91965 -39.788002,-52.89464 0.377637,-24.974982 14.484398,-55.954446 48.213694,-55.2351 11.497358,0.245204 26.380618,4.453731 38.190938,13.068401 7.81846,5.702936 13.6963,20.427662 15.63992,13.14487 1.61523,-6.052308 1.198,-19.713904 -0.93619,-29.958025 z"
       id="path1-7-4-5" />
    <path
       style="fill:#000000;fill-opacity:1;stroke:none;stroke-width:0.365001;stroke-dasharray:none;stroke-opacity:1"
       d="m 141.90472,43.170604 c 0,0 -8.89755,1.784378 -14.04282,1.587499 -8.27175,-0.316512 -25.06493,-9.957791 -40.256157,-8.914274 -48.754271,3.34903 -68.360191,31.625335 -67.418964,68.807611 0.988725,39.05863 27.734402,61.51055 66.788134,63.39863 16.034847,0.97426 23.749797,-5.68719 39.776867,-6.78197 3.42471,-0.23392 14.00547,2.75891 14.68484,-0.60588 2.02327,-10.02087 1.00285,-19.26078 1.87238,-26.68136 0.82227,-7.01726 -7.97027,3.38132 -17.78757,13.10664 -9.4639,9.37524 -34.923807,10.87529 -44.937089,7.95759 -25.413723,-7.40513 -40.165639,-27.91964 -39.788002,-52.89463 0.377637,-24.974984 14.484398,-55.954448 48.213694,-55.235102 11.497337,0.245204 26.380647,4.453731 38.190957,13.068401 7.81846,5.702936 13.6963,20.427659 15.63992,13.14487 1.61523,-6.052308 1.198,-19.713904 -0.93619,-29.958025 z"
       id="path1-7-4" />
  </g>
</svg>
