<?xml version="1.0" encoding="UTF-8"?>
<svg viewBox="0 0 400 400" xmlns="http://www.w3.org/2000/svg">
  <rect width="400" height="400" fill="#f8fcf9"/>
  
  <g stroke="#91C49F" stroke-width="0.5">
    <!-- Major grid -->
    <path d="M0,0 v400 M100,0 v400 M200,0 v400 M300,0 v400 M400,0 v400
             M0,0 h400 M0,100 h400 M0,200 h400 M0,300 h400 M0,400 h400"/>
  </g>
  
  <g stroke="#91C49F" stroke-width="0.2">
    <!-- Vertical log lines -->
    <path d="M20,0 v400 M30,0 v400 M47.7,0 v400 M60.2,0 v400 M69.9,0 v400 M77.8,0 v400 M84.5,0 v400 M90.3,0 v400 M95.4,0 v400"/>
    <path d="M120,0 v400 M130,0 v400 M147.7,0 v400 M160.2,0 v400 M169.9,0 v400 M177.8,0 v400 M184.5,0 v400 M190.3,0 v400 M195.4,0 v400"/>
    <path d="M220,0 v400 M230,0 v400 M247.7,0 v400 M260.2,0 v400 M269.9,0 v400 M277.8,0 v400 M284.5,0 v400 M290.3,0 v400 M295.4,0 v400"/>
    <path d="M320,0 v400 M330,0 v400 M347.7,0 v400 M360.2,0 v400 M369.9,0 v400 M377.8,0 v400 M384.5,0 v400 M390.3,0 v400 M395.4,0 v400"/>
    
    <!-- Horizontal log lines -->
    <!-- Each decade (100px) divided logarithmically from bottom -->
    <path d="M0,395.4 h400 M0,390.3 h400 M0,384.5 h400 M0,377.8 h400 M0,369.9 h400 M0,360.2 h400 M0,347.7 h400 M0,330 h400 M0,320 h400"/>
    <path d="M0,295.4 h400 M0,290.3 h400 M0,284.5 h400 M0,277.8 h400 M0,269.9 h400 M0,260.2 h400 M0,247.7 h400 M0,230 h400 M0,220 h400"/>
    <path d="M0,195.4 h400 M0,190.3 h400 M0,184.5 h400 M0,177.8 h400 M0,169.9 h400 M0,160.2 h400 M0,147.7 h400 M0,130 h400 M0,120 h400"/>
    <path d="M0,95.4 h400 M0,90.3 h400 M0,84.5 h400 M0,77.8 h400 M0,69.9 h400 M0,60.2 h400 M0,47.7 h400 M0,30 h400 M0,20 h400"/>
  </g>
</svg>